# xmcd CD database file
#
# Track frame offsets:
#	150
#	9765
#	20075
#	25915
#	40535
#	54695
#	58495
#	68212
#	79812
#	93025
#	109095
#	124510
#	139227
#	157302
#	171150
#
# Disc length: 2354 seconds
#
# Revision: 0
# Processed by: cddbd v1.5.1PL2 Copyright (c) Steve Scherf et al.
# Submitted via: CDex 1.51
#
DISCID=c609300f
DTITLE=IN-HI - RYUKYU DISTORTION
DYEAR=1900
DGENRE=Rock
TTITLE0=I want 中毒
TTITLE1=闘え！マングース
TTITLE2=波乗りサーフライダー
TTITLE3=fly high
TTITLE4=ちょっちゅ姉さん
TTITLE5=少年ハイジャンプ
TTITLE6=FC琉球！オーレ！
TTITLE7=PUNKY GIRL
TTITLE8=龍虎炎上
TTITLE9=Merry2 X'mas
TTITLE10=君の為にできること
TTITLE11=イナズマBEAT
TTITLE12=サンゴ伝説
TTITLE13=SWING NITE
TTITLE14=デビルアキラ
EXTD=
EXTT0=
EXTT1=
EXTT2=
EXTT3=
EXTT4=
EXTT5=
EXTT6=
EXTT7=
EXTT8=
EXTT9=
EXTT10=
EXTT11=
EXTT12=
EXTT13=
EXTT14=
PLAYORDER=
